<?xml version="1.0" encoding="utf-8"?>
<!-- Generator: Adobe Illustrator 26.5.0, SVG Export Plug-In . SVG Version: 6.00 Build 0)  -->
<svg version="1.1" id="x-0" xmlns:svgjs="http://svgjs.dev/svgjs"
	 xmlns="http://www.w3.org/2000/svg" xmlns:xlink="http://www.w3.org/1999/xlink" x="0px" y="0px" viewBox="0 0 1000 1000"
	 style="enable-background:new 0 0 1000 1000;" xml:space="preserve">
<style type="text/css">
	.st0{fill:#333333;}
	.st1{fill:#FEFEE2;}
	.st2{display:none;fill:none;}
</style>
<rect class="st0" width="1000" height="1000"/>
<g>
	<path class="st1" d="M62,500C62,258.1,258.1,62,500,62s438,196.1,438,438c0,241.9-196.1,438-438,438C258.1,938,62,741.9,62,500z
		 M500,920.3c232.2,0,420.4-188.2,420.3-420.3c0-232.2-188.2-420.4-420.3-420.4C267.8,79.7,79.7,267.8,79.7,500
		S267.8,920.4,500,920.3z"/>
	<path class="st1" d="M660.3,352H501.6v-9.6h2.2v-25h-11.6v25h2v9.6H339.7v74.7h138.1c-35.3,3.4-58.1,16.3-78.5,27.9
		c-19.4,11.1-34.7,19.8-59.5,19.8v40.5c35.5,0,58.9-13.3,79.5-25.1c20.8-11.9,40.5-23,74.8-23.4v21.8c-43.7,0.3-69.7,11.1-92.6,20.7
		c-19.1,8-35.6,14.9-61.7,14.9v40.5c34.2,0,56.1-9.2,77.3-18c21.3-8.9,41.4-17.3,77-17.6v17.1c-42.1,0.2-67.4,6.4-89.7,11.8
		c-19.9,4.9-37,9.1-64.7,9.1v40.5c32.6,0,53.8-5.2,74.3-10.3c21-5.2,42.8-10.5,80-10.7v21.8H340v74.7h319.6v-74.7h-158
		c0-4,0-11.7,0-21.8c34,0.5,54.5,5.3,76,10.3c22.3,5.2,45.3,10.6,81.8,10.6v-40.5c-31.8,0-51.6-4.6-72.5-9.5
		c-22.8-5.4-46.5-10.9-85.2-11.4c0-5.6,0-11.3,0-17.1c32.5,0.8,52.3,8.7,73.1,17c22.9,9.1,46.6,18.6,84.7,18.6v-40.5
		c-30.3,0-48.5-7.3-69.7-15.7c-22.4-8.9-47.7-19-88.1-19.9c0-7.7,0-15,0-21.7c31.3,1.1,50.6,11.6,70.9,22.6
		c22.3,12.1,47.5,25.8,86.8,25.8v-40.5c-29,0-46.8-9.7-67.5-20.9c-20.5-11.1-43.3-23.5-77.8-26.8h146.2L660.3,352L660.3,352z
		 M634.5,656.9h-77.6c0.3-0.5,0.4-1.1,0.4-1.8c0-2.3-1.9-4.2-4.2-4.2c-2.3,0-4.2,1.9-4.2,4.2c0,0.6,0.2,1.2,0.4,1.8h-84.6
		c-0.7-0.5-1.4-0.8-2.3-0.8c-0.9,0-1.7,0.3-2.3,0.8h-58.9c-0.5-1.8-2-3.2-4-3.2c-2,0-3.5,1.4-4,3.2h-27.8v-15.3c0.4,1.8,2,3.2,4,3.2
		c2.3,0,4.2-1.9,4.2-4.2c0-2.3-1.9-4.2-4.2-4.2c-2,0-3.6,1.4-4,3.2v-5.9h248.7c-0.6,0.7-1,1.7-1,2.7c0,2.3,1.9,4.2,4.2,4.2
		c2.3,0,4.2-1.9,4.2-4.2c0-1-0.4-2-1-2.7h14L634.5,656.9L634.5,656.9z M634.5,400.9h-4c-0.1,0-0.2-0.1-0.2-0.1s-0.2,0-0.2,0.1h-52.6
		c1.3-0.7,2.2-2,2.2-3.6c0-2.3-1.9-4.2-4.2-4.2c-2.3,0-4.2,1.9-4.2,4.2c0,1.6,0.9,2.9,2.2,3.6h-81.2c0,0,0,0,0,0
		c0-2.3-1.9-4.2-4.2-4.2c-2.3,0-4.2,1.9-4.2,4.2c0,0,0,0,0,0h-80c0.1-0.4,0.3-0.9,0.3-1.3c0-2.3-1.9-4.2-4.2-4.2
		c-2.3,0-4.2,1.9-4.2,4.2c0,0.5,0.1,0.9,0.3,1.3h-26.2c-0.1,0-0.2-0.1-0.3-0.1s-0.2,0-0.3,0.1h-3.8v-23.2h12c0.5,1.8,2,3.1,4,3.1
		s3.5-1.3,4-3.1h96c0,0.2-0.1,0.3-0.1,0.5c0,2.3,1.9,4.2,4.2,4.2c2.3,0,4.2-1.9,4.2-4.2c0-0.2-0.1-0.3-0.1-0.5h32.1
		c-0.5,0.7-0.9,1.5-0.9,2.5c0,2.3,1.9,4.2,4.2,4.2c2.3,0,4.2-1.9,4.2-4.2c0-0.9-0.4-1.8-0.9-2.5h66.3c0.5,1.8,2,3.1,4,3.1
		c1.9,0,3.5-1.3,4-3.1h19.1c-0.9,0.8-1.5,1.9-1.5,3.1c0,2.3,1.9,4.2,4.2,4.2c2.3,0,4.2-1.9,4.2-4.2c0-1.3-0.6-2.4-1.5-3.1h7.3
		L634.5,400.9L634.5,400.9z"/>
	<circle class="st1" cx="437.6" cy="386" r="4"/>
	<circle class="st1" cx="566.3" cy="649.5" r="4"/>
	<circle class="st1" cx="605.1" cy="651.9" r="4"/>
	<circle class="st1" cx="428.6" cy="647.3" r="4"/>
	<circle class="st1" cx="383.1" cy="639" r="4"/>
	<circle class="st1" cx="497" cy="645.7" r="4"/>
	<circle class="st1" cx="523.1" cy="641.5" r="4"/>
</g>
<rect x="150.6" y="415.3" class="st2" width="697.9" height="170.2"/>
</svg>
